<svg width="16" height="14" viewBox="0 0 16 14" fill="none" xmlns="http://www.w3.org/2000/svg">
<path d="M1.39367 7.91458H12.2474L8.92536 11.9046C8.84845 11.9972 8.79051 12.104 8.75487 12.2189C8.71922 12.3338 8.70656 12.4546 8.71761 12.5745C8.73992 12.8165 8.85744 13.0397 9.04433 13.195C9.23122 13.3503 9.47217 13.4251 9.71416 13.4028C9.95615 13.3804 10.1794 13.2629 10.3347 13.076L14.9105 7.58512C14.9412 7.54145 14.9688 7.49557 14.9928 7.44785C14.9928 7.40209 15.0386 7.37464 15.0569 7.32888C15.0984 7.22395 15.1201 7.11226 15.1209 6.99943C15.1201 6.8866 15.0984 6.7749 15.0569 6.66997C15.0569 6.62421 15.0111 6.59676 14.9928 6.551C14.9688 6.50329 14.9412 6.4574 14.9105 6.41373L10.3347 0.922821C10.2487 0.819516 10.1409 0.736439 10.0191 0.679497C9.89732 0.622555 9.76448 0.593148 9.63003 0.593366C9.4162 0.592949 9.20898 0.667419 9.04433 0.803851C8.95167 0.880677 8.87507 0.97503 8.81892 1.08151C8.76277 1.18798 8.72818 1.30449 8.71713 1.42435C8.70608 1.54421 8.71879 1.66508 8.75452 1.78003C8.79025 1.89497 8.84831 2.00174 8.92536 2.09421L12.2474 6.08428H1.39367C1.15095 6.08428 0.918182 6.18069 0.746557 6.35232C0.574933 6.52394 0.478516 6.75671 0.478516 6.99943C0.478516 7.24214 0.574933 7.47491 0.746557 7.64654C0.918182 7.81816 1.15095 7.91458 1.39367 7.91458Z" fill="black"/>
</svg>
