<svg width="83" height="19" viewBox="0 0 83 19" fill="none" xmlns="http://www.w3.org/2000/svg">
<path d="M3.0602 17.7242C2.64309 17.7387 2.22764 17.6647 1.84117 17.5071C1.45469 17.3496 1.10593 17.112 0.817816 16.8101C0.529702 16.5081 0.308755 16.1486 0.169499 15.7552C0.0302421 15.3617 -0.0241715 14.9432 0.00983462 14.5273V7.78014C0.00983462 2.66464 4.17262 0.126587 8.30225 0.126587C12.4319 0.126587 16.5746 2.66464 16.5746 7.78014V17.7242H16.0353C15.6182 17.7387 15.2028 17.6647 14.8163 17.5071C14.4298 17.3496 14.081 17.112 13.7929 16.8101C13.5048 16.5081 13.2838 16.1486 13.1446 15.7552C13.0054 15.3617 12.9509 14.9432 12.985 14.5273V7.78014C12.985 5.0492 10.6467 3.67059 8.3223 3.67059C5.99786 3.67059 3.65962 5.0492 3.65962 7.78014V17.7242H3.0602ZM5.39775 10.1647H9.26949C9.54791 10.1548 9.82529 10.2033 10.0839 10.307C10.3424 10.4106 10.5765 10.5673 10.771 10.7668C10.9654 10.9662 11.116 11.2042 11.2131 11.4653C11.3102 11.7265 11.3516 12.005 11.3346 12.2831V13.242H7.51823C7.23608 13.2595 6.95338 13.2169 6.68891 13.1172C6.42443 13.0173 6.18413 12.8625 5.98391 12.6629C5.78369 12.4634 5.62809 12.2236 5.52741 11.9595C5.42672 11.6953 5.38323 11.4128 5.39982 11.1306L5.39775 10.1647Z" fill="white"/>
<path d="M19.8517 15.0402H28.5106C30.4554 15.0402 31.9343 14.474 31.9343 13.1949C31.9343 11.696 29.9362 11.2501 27.5247 10.7571C24.1943 10.0443 20.1179 9.15866 20.1179 5.16871C20.1248 1.52515 23.4953 -3.05176e-05 27.1873 -3.05176e-05H34.7717V3.2771H27.4431C25.5446 3.2771 24.1127 3.86339 24.1127 5.27518C24.1127 6.68698 26.1108 7.09351 28.4421 7.56641C31.7725 8.23221 35.9553 9.03836 35.9553 13.1016C35.9553 16.8184 32.2585 18.3236 28.1752 18.3236H22.8489C22.4437 18.3391 22.0398 18.2683 21.6641 18.1158C21.2884 17.9633 20.9494 17.7326 20.6697 17.4391C20.39 17.1456 20.1759 16.7959 20.0417 16.4133C19.9075 16.0307 19.8561 15.6239 19.8912 15.22L19.8517 15.0402Z" fill="white"/>
<path d="M42.1591 4.28296C41.7655 4.30986 41.3708 4.25178 41.0016 4.11275C40.6325 3.97364 40.2977 3.75682 40.0197 3.47695C39.7417 3.19709 39.5272 2.86073 39.3907 2.4907C39.2541 2.12061 39.1987 1.72549 39.2283 1.33216V0.492828H42.8187V4.28296H42.1591Z" fill="#FB4D3D"/>
<path d="M42.1583 17.7241C41.7577 17.7376 41.3589 17.6662 40.9878 17.5148C40.6168 17.3634 40.2819 17.1352 40.0052 16.8453C39.7285 16.5554 39.5162 16.2103 39.3822 15.8326C39.2482 15.4549 39.1954 15.0532 39.2275 14.6537V5.73492H42.8178V17.7241H42.1583Z" fill="white"/>
<path d="M45.2102 0.492828H63.0547V3.54319H47.7344C47.3865 3.55425 47.0401 3.4921 46.7178 3.3608C46.3954 3.22944 46.1042 3.03178 45.8631 2.78074C45.6219 2.52963 45.4363 2.23068 45.3181 1.90324C45.1999 1.5758 45.1519 1.22721 45.177 0.880001L45.2102 0.492828ZM52.104 5.38848H55.6943V17.724H54.9614C54.5698 17.7377 54.1798 17.6681 53.8171 17.52C53.4544 17.3718 53.1273 17.1484 52.8572 16.8645C52.5872 16.5806 52.3804 16.2427 52.2506 15.8731C52.1208 15.5034 52.0708 15.1104 52.104 14.72V5.38848Z" fill="white"/>
<path d="M64.5323 0.492828H68.6951L72.4121 6.25408L71.9461 6.91988C71.8189 7.2059 71.6115 7.44885 71.3488 7.61942C71.0868 7.78991 70.7805 7.88069 70.4673 7.88069C70.1541 7.88069 69.8478 7.78991 69.5851 7.61942C69.323 7.44885 69.1155 7.2059 68.9883 6.91988L64.5323 0.492828ZM71.626 10.4839L78.1471 0.492828H82.3099L75.2164 10.784V17.724H74.5506C72.7986 17.724 71.6198 16.492 71.6198 14.6205L71.626 10.4839Z" fill="white"/>
</svg>
